<?xml version="1.0" encoding="utf-8"?>
<!-- Generator: Adobe Illustrator 18.1.1, SVG Export Plug-In . SVG Version: 6.00 Build 0)  -->
<svg version="1.1" id="Layer_1" xmlns="http://www.w3.org/2000/svg" xmlns:xlink="http://www.w3.org/1999/xlink" x="0px" y="0px"
	 viewBox="0 0 306.3 306.3" enable-background="new 0 0 306.3 306.3" xml:space="preserve">
<g id="Layer_3">
</g>
<g>
	<path fill="#007B53" d="M72.8,78.6h-63c-3.2,0-5.8-2.6-5.8-5.8l0-63c0-3.2,2.6-5.8,5.8-5.8l63,0c3.2,0,5.8,2.6,5.8,5.8v63
		C78.6,76,76,78.6,72.8,78.6z"/>
	<path fill="#007B53" d="M147.4,153.2h-63c-3.2,0-5.8-2.6-5.8-5.8v-63c0-3.2,2.6-5.8,5.8-5.8h63c3.2,0,5.8,2.6,5.8,5.8v63
		C153.2,150.6,150.6,153.2,147.4,153.2z"/>
	<path fill="#007B53" d="M72.8,227.7h-63c-3.2,0-5.8-2.6-5.8-5.8l0-63c0-3.2,2.6-5.8,5.8-5.8h63c3.2,0,5.8,2.6,5.8,5.8v63
		C78.6,225.1,76,227.7,72.8,227.7z"/>
	<path fill="#007B53" d="M147.4,302.3h-63c-3.2,0-5.8-2.6-5.8-5.8v-63c0-3.2,2.6-5.8,5.8-5.8h63c3.2,0,5.8,2.6,5.8,5.8v63
		C153.2,299.7,150.6,302.3,147.4,302.3z"/>
	<path fill="#007B53" d="M222,78.6h-63c-3.2,0-5.8-2.6-5.8-5.8v-63c0-3.2,2.6-5.8,5.8-5.8h63c3.2,0,5.8,2.6,5.8,5.8v63
		C227.7,76,225.1,78.6,222,78.6z"/>
	<path fill="#007B53" d="M296.5,153.2h-63c-3.2,0-5.8-2.6-5.8-5.8v-63c0-3.2,2.6-5.8,5.8-5.8h63c3.2,0,5.8,2.6,5.8,5.8v63
		C302.3,150.6,299.7,153.2,296.5,153.2z"/>
	<path fill="#007B53" d="M222,227.7h-63c-3.2,0-5.8-2.6-5.8-5.8v-63c0-3.2,2.6-5.8,5.8-5.8h63c3.2,0,5.8,2.6,5.8,5.8v63
		C227.7,225.1,225.1,227.7,222,227.7z"/>
	<path fill="#007B53" d="M296.5,302.3h-63c-3.2,0-5.8-2.6-5.8-5.8v-63c0-3.2,2.6-5.8,5.8-5.8h63c3.2,0,5.8,2.6,5.8,5.8v63
		C302.3,299.7,299.7,302.3,296.5,302.3z"/>
</g>
</svg>
