<?xml version="1.0" encoding="utf-8"?>
<!-- Generator: Adobe Illustrator 18.1.1, SVG Export Plug-In . SVG Version: 6.00 Build 0)  -->
<svg version="1.1" id="Layer_1" xmlns="http://www.w3.org/2000/svg" xmlns:xlink="http://www.w3.org/1999/xlink" x="0px" y="0px"
	 viewBox="0 0 458 641" enable-background="new 0 0 458 641" xml:space="preserve">
<g>
	<path fill="#007B53" d="M98.6,322.5H8.8c-2.3,0-4.1-1.8-4.1-4.1c0-2.3,1.8-4.1,4.1-4.1h89.8c2.3,0,4.1,1.8,4.1,4.1
		C102.8,320.6,100.9,322.5,98.6,322.5z"/>
	<path fill="#007B53" d="M105.2,296.7c-0.6,0-1.2-0.1-1.8-0.4l-91.6-44.1c-2.1-1-2.9-3.5-1.9-5.5c1-2.1,3.5-2.9,5.5-1.9l91.6,44.1
		c2.1,1,2.9,3.5,1.9,5.5C108.2,295.8,106.7,296.7,105.2,296.7z"/>
	<path fill="#007B53" d="M122.3,276.3c-1.2,0-2.4-0.5-3.2-1.5L37.2,172.4c-1.4-1.8-1.1-4.4,0.6-5.8c1.8-1.4,4.4-1.1,5.8,0.6
		l81.9,102.3c1.4,1.8,1.1,4.4-0.6,5.8C124.1,276,123.2,276.3,122.3,276.3z"/>
	<path fill="#007B53" d="M146.6,265.3c-1.9,0-3.6-1.3-4-3.2l-47-190.5c-0.5-2.2,0.9-4.4,3.1-4.9c2.2-0.5,4.4,0.9,4.9,3.1l47,190.5
		c0.5,2.2-0.9,4.4-3.1,4.9C147.2,265.3,146.9,265.3,146.6,265.3z"/>
	<path fill="#007B53" d="M209.7,116.4c-0.3,0-0.6,0-0.9-0.1c-2.2-0.5-3.6-2.7-3.1-4.9L223.5,9.8c0.5-2.2,2.7-3.6,4.9-3.1
		c2.2,0.5,3.6,2.7,3.1,4.9l-17.7,101.6C213.3,115.1,211.6,116.4,209.7,116.4z"/>
	<path fill="#007B53" d="M173.2,266c-0.3,0-0.6,0-0.9-0.1c-2.2-0.5-3.6-2.7-3.1-4.9l4.1-17.9c0.5-2.2,2.7-3.6,4.9-3.1
		c2.2,0.5,3.6,2.7,3.1,4.9l-4.1,17.9C176.8,264.7,175.1,266,173.2,266z"/>
	<path fill="#007B53" d="M288.6,164.4c-0.9,0-1.8-0.3-2.6-0.9c-1.8-1.4-2.1-4-0.6-5.8l74.2-95.1c1.4-1.8,4-2.1,5.8-0.6
		c1.8,1.4,2.1,4,0.6,5.8l-74.2,95.1C291.1,163.8,289.9,164.4,288.6,164.4z"/>
	<path fill="#007B53" d="M322.6,250.7c-1.5,0-3-0.9-3.7-2.3c-1-2.1-0.1-4.5,1.9-5.5L435.1,184c2.1-1,4.5-0.1,5.5,1.9
		c1,2.1,0.1,4.5-1.9,5.5l-114.2,58.9C323.8,250.6,323.2,250.7,322.6,250.7z"/>
	<path fill="#007B53" d="M449.2,325.7C449.2,325.7,449.2,325.7,449.2,325.7l-122.4-0.1c-2.3,0-4.1-1.9-4.1-4.1
		c0-2.3,1.9-4.1,4.1-4.1c0,0,0,0,0,0l122.4,0.1c2.3,0,4.1,1.9,4.1,4.1C453.3,323.9,451.5,325.7,449.2,325.7z"/>
	<path fill="#007B53" d="M440.8,462c-0.6,0-1.2-0.1-1.8-0.4l-106.4-55.3c-2.1-1-2.9-3.5-1.9-5.5s3.5-2.9,5.5-1.9l106.4,55.3
		c2.1,1,2.9,3.5,1.9,5.5C443.8,461.1,442.3,462,440.8,462z"/>
	<path fill="#007B53" d="M98.3,574.4c-0.3,0-0.6,0-0.9-0.1c-2.2-0.5-3.6-2.7-3.1-5l45.3-192.5c0.5-2.2,2.7-3.6,5-3.1
		c2.2,0.5,3.6,2.7,3.1,5l-45.3,192.5C101.8,573.2,100.1,574.4,98.3,574.4z"/>
	<path fill="#007B53" d="M29.6,484.9c-0.9,0-1.9-0.3-2.6-0.9c-1.8-1.5-2-4.1-0.6-5.8L116.7,363c1.5-1.7,4.1-2,5.8-0.5
		c1.8,1.5,2,4.1,0.6,5.8L32.7,483.4C31.9,484.4,30.7,484.9,29.6,484.9z"/>
	<path fill="#007B53" d="M12.2,392.4c-1.5,0-3-0.9-3.7-2.3c-1-2.1-0.1-4.5,1.9-5.5l91.7-43.9c2.1-1,4.5-0.1,5.5,1.9s0.1,4.5-1.9,5.5
		L14,392C13.4,392.3,12.8,392.4,12.2,392.4z"/>
	<path fill="#007B53" d="M281.3,73.5c-0.6,0-1.2-0.1-1.8-0.4c-2.1-1-2.9-3.5-1.9-5.5L294,29.1c1-2.1,3.5-2.9,5.5-1.9
		c2.1,1,2.9,3.5,1.9,5.5L285,71.2C284.3,72.6,282.8,73.5,281.3,73.5z"/>
	<path fill="#007B53" d="M374.9,150.6c-1.3,0-2.5-0.6-3.3-1.7c-1.3-1.8-0.9-4.4,0.9-5.8l30.3-22c1.8-1.3,4.4-0.9,5.8,0.9
		c1.3,1.8,0.9,4.4-0.9,5.8l-30.3,22C376.6,150.3,375.7,150.6,374.9,150.6z"/>
	<path fill="#007B53" d="M406.5,267.5c-2.1,0-3.9-1.6-4.1-3.7c-0.3-2.3,1.4-4.3,3.6-4.6l37.2-4.1c2.2-0.2,4.3,1.4,4.6,3.6
		c0.3,2.3-1.4,4.3-3.6,4.6l-37.2,4.1C406.8,267.5,406.7,267.5,406.5,267.5z"/>
	<path fill="#007B53" d="M449.2,392.8c-0.3,0-0.5,0-0.8-0.1l-44-8.3c-2.2-0.4-3.7-2.6-3.3-4.8c0.4-2.2,2.6-3.7,4.8-3.3l44,8.3
		c2.2,0.4,3.7,2.6,3.3,4.8C452.9,391.4,451.1,392.8,449.2,392.8z"/>
	<path fill="#007B53" d="M416.2,519.4c-0.8,0-1.6-0.2-2.4-0.8l-37.2-26.1c-1.9-1.3-2.3-3.9-1-5.7c1.3-1.9,3.9-2.3,5.8-1l37.2,26.1
		c1.9,1.3,2.3,3.9,1,5.7C418.7,518.8,417.4,519.4,416.2,519.4z"/>
	<path fill="#007B53" d="M353.7,591.8c-2.9-14.6-6.1-30.8-7.4-44.6c-2.1-21.5-10.6-41.8-14.5-63c-4.7-25.7-15.3-49.7-21.8-74.9
		c-1.7-6.6-4-13.1-7-19.3c-7-14.7,0-28.5,2.4-42.5c3.8-22.4,3-44.3-7-64.8c-1.5-3.1-3.2-6.2-5.1-9.2h0.1
		c-4.5-7.4-9.7-14.5-14.9-21.3c-6.4-8.3-10.7-24.7-9.1-28.9c0.7-1.9,4.6-2.2,8.4-3.8c8-3.2,14.5-8,11.3-21.9
		c-2.7-11.7-8.6-29.4-19.1-40.3c-2.6-2.7-4.8-5.4-8.3-7.5c-34.1-20.3-50.9-10.1-56.3-8.8c-5.9,1.5-11.6,3.9-15.6,8.7
		c-15.7,18.3-17,31.8-3.7,51.1c2.9,4.2,1.1,10.7-0.4,16.2c-0.9,3.4,4.2,4.4,8,5.8c1.3,0.5,2.5,1.1,3.6,1.8c2.3,1.4,1,2,2.9,4
		c2.2,2.3,10.7,13.5,13.1,15.6c2.1,4.5,10.5,1.8,15,3.9c2.9,1.3,5.4,2.8,5.7,4.8c2,4.4-2.2,12.5-7.6,20.7c0,0-11.9,16.4-14.9,20.8
		c-5.5,8-7.7,17.4-10.7,26.4c-0.8,2.3,0,5.4-3.9,5.7c-3,0.3-5.3-0.7-6.7-3c-2.3-3.8-3.8-8.4-4.8-12.3c-3.3-12.9-12.5-16.6-23.4-18.1
		c-11.4-1.5-18.3,5.1-24.6,14.1c-6.7,9.5-7,18.9-3.3,29.2c0,0,0,0,0,0c1,3.3,3,6.1,5.8,8c10.5,7.4,22,11.7,35.5,11.2
		c7.7-0.3,11.9,3.6,9.3,12.3c-7.7,25.4-12.6,51.6-19.3,77.2c-12,46.1-18.9,91.4-24.9,143.7c-0.4,3.8-0.7,7.9-2.9,10.6
		c-1,1.2-2,2.5-2.8,3.7c-1.3,1.9-0.8,4.6,1.2,5.8c2.9,1.9,5.9,3.7,8.8,5.6c2.7,1.7,6.2-0.2,6.3-3.4c0.1-3.9,0.3-7.7,0.8-11.5
		c2.7-23,3.2-46.6,7.4-67.3c1.1-5.4,8.9-36.3,16.7-53.6c1.4-3.1,6.1-1.8,5.7,1.5c-4,37.5-17.6,102.5-19.1,139.4
		c-0.1,1.9,1.2,3.6,3.1,4.1c5,1.3,9.9,2.6,14.9,3.8c2.6,0.6,5.1-1.4,5.1-4.1c-0.1-2.9-0.2-5.8-0.2-8.7c-0.5-24.5,0.3-50.4-0.3-72.4
		c-0.4-14.6,10.6-38.2,8.2-60.7c-0.9-8.7-21.4-43.3-7.7-43.7c13.7-0.3,13.4,33.2,13.4,36.6c0,11.3-0.1,22.6-0.1,34
		c-0.3,1.5-0.6,3-1,4.4c-4.4,17,8.8,21.6,7,29.5c-1.9,7.9-6.3,16.5-7.7,24.2c-1.4,7.7,9.3,13.7,2.6,21.1c-4.3,4.8-4.7,25.4-4.5,39.6
		c0,2,1.4,3.7,3.4,4c1.7,0.3,3.5,0.6,5.2,0.9c2.3,0.4,4.5-1.3,4.7-3.7c1.2-14,6.7-46.4,6.7-52.4c0-7-6-3.9-8.4-7
		c-2.3-3-0.2-10.2,9.3-19c9.5-8.8,14.2-15.1,5.1-19.3c-5.3-2.5-8.8-9.5-10.8-14.9c-0.1-4.6-2-10.7-1.5-14.1c2.2-17.4,9-26.2,14.8-43
		c0.9-2.5-0.4-7.1,4.2-6.6c4.1,0.5,3.2,4.6,3.1,7.4c-0.3,22.1-0.3,44.3-1.5,66.4c-1.7,32.2-3.9,68.8-4,104.7c0,0.9,1.3,2.8,4.1,3.4
		c0.6,0.1,3.5,0,4,0c2.1,0,3.9-1.8,4-3.9c0.5-8.2,1-16.4,1.2-24.6c0.6-21.7,1.3-44.5,2.5-64c1.9-30.6,5.3-61.2,8.1-91.8
		c0.7-7.2,6.2-11,12.3-11c8,0,5.5,6.6,5.4,11.8c-0.4,12-0.1,24.1-0.1,36.1c0.5,16.1,0.7,32.4,0.1,48.2c-0.7,17.8-2.1,38-3,57.8
		c-0.5,11.1-2.7,22.2-3.7,33.2c-0.2,2.7,2.3,4.9,4.9,4.4c4.9-1,9.8-2.2,14.7-3.5c1.7-0.5,2.9-2,3-3.7c0.1-1.4,0.2-2.8,0.4-4.3
		c1.6-14.7-5.1-20.1-1.7-33c11.8-45.7,21.8-95.2,11.1-82.9c-4.9,5.1-8.6,40.2-14.6,35.1c-4.6-7.2,12.4-97.1,16.3-130.4
		c7,6.9,4.5,40,5.1,47.6c2.3,29.1,2.7,58.3,5.9,87.3c2.4,21.3,1.2,46.7,0.9,70c0,2.6,2.1,4.4,4.6,4.1c8.1-1.1,9.7-5.3,10.7-6.7
		c0.3-27.5-4.1-55-5.6-79.5c-1.8-31.6-11.8-62.2-10.6-96.1c7.3,10.6,10,20.8,10.5,31c1.6,35.4,8.7,70.2,11.7,105.4
		c0.8,9.2,1.5,22.9,2.1,33c0.2,2.8,3,4.7,5.6,3.6c0,0,0.1,0,0.1,0c1.7-0.7,2.7-2.4,2.6-4.2c-1.6-21.2-3.9-43.9-5.8-63.2
		c5.5,16.4,9.6,36,12.8,53.8c0.6,3,4.1,4.4,6.6,2.6c0.2-0.2,0.4-0.3,0.7-0.5C353.4,595,354,593.4,353.7,591.8z M225.7,240.7
		c-3.7-0.3-6.7-2.3-9.3-0.3c0.3-4.7-5-11.7-5.8-14c-0.6-1.7-3.5-4.1-5.4-5.1c-11.7-6.1-9.3-16-6-17.9c2.8-1.6,7-4.9,6.6-5.8
		c-0.7-1.4-5.4-1.2-8.8-0.8c-2.1,0.3-4,3-6.1-1.6c-1.6-3.5,2-4.2,4.3-5.4c10.6-5.4,14.3-3.9,17.5,7.1c0.8,2.6,2.1,7,3.1,9.5
		c8.7,23.5,8.8,23.4,33.8,19.1c4-0.7,10.5-5.1,12.1,2.9c1.2,6.2,5.3,13.9-3.5,18.1c-3,1.4-5.9,2.8-8.7,4.5c-5.9,3.6-6.7,2.2-7.7-5.5
		C240.5,237.2,235.9,241.6,225.7,240.7z M265.4,322.7c-7.4-13.3-6.7-31.7-1.2-46.4C278.8,300.5,267.3,310.1,265.4,322.7z
		 M253.6,351.4c-5.1-8.2-5.4-31.1-2-42.1C256.5,319.6,255.9,342.6,253.6,351.4z M144.9,320.3c-0.7-8.8,2.1-17.2,10.8-18.7
		c18.4-3.3,22.7,10.3,22.3,14.6c-0.2,2.5,1.4,17.5-19.9,16.2C151.6,332.1,145.4,327.4,144.9,320.3z M160.9,341.9
		c-1.5-1.4-3-2.8-1.8-4.6c0.5-0.8,2.9-1.4,3.9-0.9c6.4,2.6,12.7,1.4,19.2,1.3c6.6-0.1,15.1,4.5,19.2,10.9c3.1,4.7-2,7.6-7.9,9.2
		C185.5,347.5,170.4,350.9,160.9,341.9z M224.9,412.4c-6.4,4.5-12.9,15.1-19.1,19.3c-1.6,1.1-3.6,0.7-5-0.9
		c-10.8-12.2-5.5-36.2-4-49.2c1.3-11,12.8-9.9,19.2-14.5c3.5-0.8,4.8,1.2,4.6,3.6c-1,9.1,4.7,15.6,8.7,22.6
		C233.8,401.4,232.7,406.8,224.9,412.4z M259.4,384.4c-13,8.4-6.3,25.7-4.3,38c-5.4-7.5-14-30.6-18.3-34.5
		c-4.5-4.1-4.9-13.6-3.2-13.4c14.6,1.5-0.9-11.9-0.3-21.5c0.3-4.1,1.6-20.5,5.5-26c1.5,23.5,10.8,38.4,22.1,47.1
		C265.9,377.8,262.9,382.1,259.4,384.4z M276.1,349.6c-0.6,4.4-5.5,6-10.1,4.6c-5.6-1.6-2.2-5.5-1.5-8.3
		c3.1-13.5,19.8-26.3,21.4-40.6C291.7,320.1,278.1,335.5,276.1,349.6z"/>
</g>
<g id="Layer_3">
</g>
</svg>
