<?xml version="1.0" encoding="utf-8"?>
<!-- Generator: Adobe Illustrator 18.1.1, SVG Export Plug-In . SVG Version: 6.00 Build 0)  -->
<svg version="1.1" id="Layer_1" xmlns="http://www.w3.org/2000/svg" xmlns:xlink="http://www.w3.org/1999/xlink" x="0px" y="0px"
	 viewBox="0 0 1120.1 127.3" enable-background="new 0 0 1120.1 127.3" xml:space="preserve">
<g>
	<path fill="#010202" d="M522.7,65.9c10.4-4.5,16.2-16.3,16.2-30.5c0-15.3-6.1-33.5-34.9-33.5h-38.7c-0.3,0-0.6,0.3-0.6,0.6V125
		c0,0.3,0.3,0.6,0.6,0.6h11c0.3,0,0.6-0.3,0.6-0.6v-53h35l21.9,53c0.1,0.3,0.5,0.6,0.9,0.6h11.8c0.6,0,1-0.5,0.6-1.2
		C547.1,124.4,523.2,66.9,522.7,65.9z M476.9,60.7V13.4h26.6c19.2,0,23.2,12.1,23.2,22.3c0,12.1-6.1,24.9-23.2,24.9H476.9z"/>
	<path fill="#010202" d="M914.9,1.8h-11c-0.3,0-0.6,0.3-0.6,0.6v79.4c0,21.1-13.1,32.6-29.7,32.6c-11.7,0-29.5-5.7-29.5-32.6V2.4
		c0-0.3-0.3-0.6-0.6-0.6h-11c-0.3,0-0.6,0.3-0.6,0.6v79.4c0,28.9,17,44.2,41.8,44.2c24.9,0,42-15.3,42-44.2V2.4
		C915.5,2,915.2,1.8,914.9,1.8z"/>
	<path fill="#010202" d="M688.4,1.8h-11c-0.3,0-0.6,0.3-0.6,0.6v53.8h-52V2.4c0-0.3-0.3-0.6-0.6-0.6h-11c-0.3,0-0.6,0.3-0.6,0.6V125
		c0,0.3,0.3,0.6,0.6,0.6h11c0.3,0,0.6-0.3,0.6-0.6V67.8h52V125c0,0.3,0.3,0.6,0.6,0.6h11c0.3,0,0.6-0.3,0.6-0.6V2.4
		C689.1,2,688.8,1.8,688.4,1.8z"/>
	<path fill="#010202" d="M761.2,0c-19.7,0-44.5,11-44.5,63.7c0,52.6,24.8,63.7,44.5,63.7c19.8,0,44.7-11,44.7-63.7
		C805.9,11,781,0,761.2,0z M761.2,115.7c-19.9,0-32.2-18.5-32.2-52.1c0-33.6,12.3-52.1,32.2-52.1c11.6,0,32.4,6.8,32.4,52.1
		C793.6,109,772.8,115.7,761.2,115.7z"/>
	<path fill="#010202" d="M1007.8,69.6c-6.6-6.2-16.7-9.3-25.7-11.7c-12.5-3.2-25.8-8-25.8-24.6c0-12.9,9.2-21.6,22.8-21.6
		c14.4,0,22.6,7.5,25.1,22.9c0,0.3,0.3,0.5,0.6,0.5h11c0.2,0,0.3-0.1,0.5-0.2c0.1-0.1,0.2-0.3,0.2-0.5C1014.6,4.5,992.4,0,979.4,0
		c-21.4,0-35.8,13.6-35.8,33.7c0,11.4,3.6,27.5,35.1,35.6c18.9,4.8,25.6,11.5,25.6,25.5c0,14.2-12.1,20.6-24.1,20.6
		c-16.6,0-25.1-7.4-27.4-24c0-0.3-0.3-0.5-0.6-0.5h-10.9c-0.2,0-0.3,0.1-0.5,0.2c-0.1,0.1-0.2,0.3-0.2,0.5
		c1.2,22.7,15.6,35.8,39.5,35.8c18.4,0,36.9-10,36.9-32.3C1017.1,83.6,1014.2,75.5,1007.8,69.6z"/>
	<path fill="#010202" d="M67.1,69.6c-6.6-6.2-16.7-9.3-25.7-11.7c-12.5-3.2-25.8-8-25.8-24.6c0-12.9,9.2-21.6,22.8-21.6
		c14.4,0,22.6,7.5,25.1,22.9c0,0.3,0.3,0.5,0.6,0.5h11c0.2,0,0.3-0.1,0.5-0.2c0.1-0.1,0.2-0.3,0.2-0.5C73.8,4.5,51.7,0,38.6,0
		C17.2,0,2.8,13.6,2.8,33.7c0,11.4,3.6,27.5,35.1,35.6c18.9,4.8,25.6,11.5,25.6,25.5c0,14.2-12.1,20.6-24.1,20.6
		c-16.6,0-25.1-7.4-27.4-24c0-0.3-0.3-0.5-0.6-0.5H0.6c-0.2,0-0.3,0.1-0.5,0.2C0.1,91.2,0,91.4,0,91.5c1.2,22.7,15.6,35.8,39.5,35.8
		c18.4,0,36.9-10,36.9-32.3C76.4,83.6,73.4,75.5,67.1,69.6z"/>
	<path fill="#010202" d="M267.1,106.2c-0.4-0.4-1.1-0.4-1.4,0.1c-3.3,4.7-8.4,7.8-17.3,7.8h-36.2V2.4c0-0.3-0.3-0.6-0.6-0.6h-11
		c-0.3,0-0.6,0.3-0.6,0.6V125c0,0.3,0.3,0.6,0.6,0.6h47.9c0.1,0,0.3,0,0.5,0l0,0c9.4,0,18.6-2.1,25.6-9.9c0.3-0.4,0.3-0.9,0-1.3
		L267.1,106.2z"/>
	<path fill="#010202" d="M141.8,2.2c-0.1-0.3-0.3-0.5-0.6-0.5h-14c-0.3,0-0.5,0.2-0.6,0.5L91,124.8c-0.1,0.2,0,0.4,0.1,0.5
		c0.1,0.2,0.3,0.2,0.5,0.2H103c0.3,0,0.5-0.2,0.6-0.5l9.2-32.3h43l9.2,32.3c0.1,0.3,0.3,0.5,0.6,0.5h11.2c0.2,0,0.4-0.1,0.5-0.2
		c0.1-0.2,0.2-0.4,0.1-0.5L141.8,2.2z M115.9,81.3L133.3,17l0.9-4.5l0.9,4.5l17.4,64.3H115.9z"/>
	<path fill="#010202" d="M1119.9,114.4l-7.3-8.2c-0.4-0.4-1.1-0.4-1.4,0.1c-3.3,4.7-8.4,7.8-17.3,7.8h-35.4V68.5h48.3
		c0.3,0,0.6-0.3,0.6-0.6V57.5c0-0.3-0.3-0.6-0.6-0.6h-48.3V13.3h52.9c0.3,0,0.6-0.3,0.6-0.6V2.4c0-0.3-0.3-0.6-0.6-0.6h-64.6
		c-0.3,0-0.6,0.3-0.6,0.6V125c0,0.3,0.3,0.6,0.6,0.6h49.1c0,0,0.1,0,0.1,0c8.9-0.2,17.3-2.6,23.9-9.9
		C1120.2,115.3,1120.2,114.7,1119.9,114.4z"/>
	<path fill="#010202" d="M350.8,1.8h-68.7l0,0c0,0-0.1,0-0.1,0h-0.7c0,0,0,0-0.1,0c-9.2,0.1-18,2.3-24.8,9.9c-0.3,0.4-0.3,0.9,0,1.3
		l7.3,8.2c0.4,0.4,1.1,0.4,1.4-0.1c3.3-4.7,8.4-7.7,17.3-7.8h18.2V125c0,0.3,0.3,0.6,0.6,0.6h11.2c0.3,0,0.6-0.3,0.6-0.6V13.3h37.6
		c0.3,0,0.6-0.3,0.6-0.6V2.4C351.4,2,351.2,1.8,350.8,1.8z"/>
	<path fill="#010202" d="M435.1,1.8h-64.6c-0.3,0-0.6,0.3-0.6,0.6V125c0,0.3,0.3,0.6,0.6,0.6h64.6c0.3,0,0.6-0.3,0.6-0.6v-10.3
		c0-0.3-0.3-0.6-0.6-0.6h-52.9V68.5h48.3c0.3,0,0.6-0.3,0.6-0.6V57.5c0-0.3-0.3-0.6-0.6-0.6h-48.3V13.3h52.9c0.3,0,0.6-0.3,0.6-0.6
		V2.4C435.7,2,435.4,1.8,435.1,1.8z"/>
</g>
<g id="Layer_3">
</g>
</svg>
